<svg xmlns="http://www.w3.org/2000/svg" viewBox="0 0 128 128">
  <path fill="#A41E11" d="M121.8 93.1c-6.7 3.5-41.4 17.7-48.8 21.6-7.4 3.9-11.5 3.8-17.3 1.1S16 98.1 9.3 95.1c-3.4-1.5-5.2-2.8-5.2-4.1V80.6s48.1-10.5 55.8-13.2c7.7-2.7 10.4-2.8 17-0.4 6.6 2.4 46.4 9.6 51.2 11.5v10.3c0 1.3-2 2.7-6.3 4.3z"/>
  <path fill="#D82C20" d="M121.8 82.8c-6.7 3.5-41.4 17.7-48.8 21.6-7.4 3.8-11.5 3.8-17.3 1.1C48.9 102.7 16 87.8 9.3 84.8c-6.7-3-6.9-5.1-0.3-7.5 6.6-2.4 43.9-17.2 51.6-19.9 7.7-2.7 10.4-2.8 17-0.4 6.6 2.4 40 15.6 44.8 17.6 4.9 2 5.9 4.7-0.6 8.2z"/>
  <path fill="#A41E11" d="M121.8 75.4c-6.7 3.5-41.4 17.7-48.8 21.6-7.4 3.9-11.5 3.8-17.3 1.1S16 80.4 9.3 77.4c-3.4-1.5-5.2-2.8-5.2-4.1V62.9s48.1-10.5 55.8-13.2c7.7-2.7 10.4-2.8 17-0.4 6.6 2.4 46.4 9.6 51.2 11.5v10.3c0 1.3-2 2.7-6.3 4.3z"/>
  <path fill="#D82C20" d="M121.8 65.1c-6.7 3.5-41.4 17.7-48.8 21.6-7.4 3.8-11.5 3.8-17.3 1.1C48.9 85 16 70.1 9.3 67.1c-6.7-3-6.9-5.1-0.3-7.5C15.6 57.2 53 42.4 60.7 39.7c7.7-2.7 10.4-2.8 17-0.4 6.6 2.4 40 15.6 44.8 17.6 4.9 2 5.9 4.7-0.7 8.2z"/>
  <path fill="#A41E11" d="M121.8 58c-6.7 3.5-41.4 17.7-48.8 21.6-7.4 3.8-11.5 3.8-17.3 1.1S16 63 9.3 60c-3.4-1.5-5.2-2.8-5.2-4.1V45.5s48.1-10.5 55.8-13.2c7.7-2.7 10.4-2.8 17-0.4 6.6 2.4 46.4 9.6 51.2 11.5V53.7c0 1.3-2 2.7-6.3 4.3z"/>
  <path fill="#D82C20" d="M121.8 47.7c-6.7 3.5-41.4 17.7-48.8 21.6-7.4 3.8-11.5 3.8-17.3 1.1C48.9 67.6 16 52.7 9.3 49.7c-6.7-3-6.9-5.1-0.3-7.5C15.6 39.8 53 25 60.7 22.3c7.7-2.7 10.4-2.8 17-0.4 6.6 2.4 40 15.7 44.8 17.6 4.9 2 5.9 4.7-0.7 8.2z"/>
</svg>
